<svg width="15" height="15" fill="none" version="1.1" viewBox="0 0 15 15" xmlns="http://www.w3.org/2000/svg"><path d="m14.013 8.48c0.1464 0 0.2868-0.05816 0.3903-0.16168 0.1035-0.10352 0.1617-0.24392 0.1617-0.39032v-3.616c-8e-4 -0.58535-0.2337-1.1465-0.6476-1.5604s-0.9751-0.64679-1.5604-0.64758h-9.716c-0.58535 7.937e-4 -1.1465 0.23367-1.5604 0.64758-0.4139 0.41391-0.64679 0.97507-0.64758 1.5604v6.376c7.93e-4 0.58535 0.23368 1.1465 0.64758 1.5605 0.41391 0.4139 0.97507 0.6467 1.5604 0.6475h9.716c0.5853-8e-4 1.1465-0.2336 1.5604-0.6475 0.4139-0.41395 0.6468-0.97511 0.6476-1.5605 0.0065-0.07617-0.0029-0.15286-0.0276-0.22521s-0.0641-0.13879-0.1158-0.19509c-0.0517-0.05631-0.1146-0.10126-0.1846-0.13202-0.07-0.03075-0.1456-0.04663-0.222-0.04663-0.0765 0-0.1521 0.01588-0.2221 0.04663-0.0699 0.03076-0.1328 0.07571-0.1845 0.13202-0.0517 0.0563-0.0911 0.12274-0.1158 0.19509s-0.0341 0.14904-0.0276 0.22521c-0.0013 0.29133-0.1176 0.57036-0.3236 0.77637-0.2061 0.206-0.4851 0.32231-0.7764 0.32363h-9.724c-0.29133-0.00132-0.57036-0.11763-0.77636-0.32363-0.20601-0.20601-0.32232-0.48504-0.32364-0.77637v-6.259l4.8 2.982c0.34944 0.2191 0.75355 0.3353 1.166 0.3353s0.81655-0.1162 1.166-0.3353l4.8-2.982v3.5c2e-4 0.14417 0.0568 0.28253 0.1578 0.38549 0.1009 0.10297 0.2381 0.16238 0.3822 0.16551zm-5.931-2.006c-0.17483 0.10927-0.37684 0.1672-0.583 0.1672s-0.40818-0.05793-0.583-0.1672l-4.918-3.059c0.18732-0.13473 0.41226-0.20715 0.643-0.207h9.716c0.2307-1.5e-4 0.4557 0.07227 0.643 0.207z" fill="#030303"/></svg>
