<svg width="15" height="15" fill="none" version="1.1" viewBox="0 0 15 15" xmlns="http://www.w3.org/2000/svg"><path d="m14.567 11.819c-0.0186-0.5439-0.2486-1.059-0.641-1.436-0.559-0.6079-1.2564-1.0721-2.033-1.353-0.4123-0.12141-0.8505-0.12357-1.2639-0.00623-0.4134 0.11733-0.7851 0.34936-1.0721 0.66923l-0.746 0.74099c-0.86187-0.4992-1.6532-1.1113-2.353-1.82l-0.073-0.073c-0.70872-0.69981-1.3208-1.4911-1.82-2.353l0.741-0.746c0.31986-0.287 0.5519-0.65873 0.66923-1.0722 0.11734-0.41342 0.11518-0.85161-0.00623-1.2638-0.28052-0.77605-0.74394-1.4731-1.351-2.032-0.37766-0.39202-0.89279-0.62208-1.4368-0.64166s-1.0743 0.17282-1.4792 0.53666l-0.016 0.014-0.022 0.02c-0.41465 0.43631-0.73709 0.95173-0.94808 1.5155-0.21099 0.56372-0.30619 1.1642-0.27992 1.7655 0.19013 2.655 1.3831 5.1383 3.337 6.946 0.41553 0.4117 0.85747 0.7958 1.323 1.15 0.11617 0.0891 0.26297 0.1284 0.40813 0.1093 0.14515-0.0191 0.27676-0.0951 0.36587-0.2113s0.12843-0.263 0.1093-0.4081c-0.01913-0.1452-0.09513-0.2768-0.2113-0.3659-0.42754-0.3255-0.83341-0.6786-1.215-1.057-1.7494-1.6005-2.8274-3.8045-3.017-6.168-0.02284-0.45326 0.045-0.90651 0.19954-1.3332 0.15454-0.42671 0.39268-0.81828 0.70046-1.1518 0.19172-0.17325 0.44342-0.26494 0.70165-0.2556 0.25823 0.00933 0.50264 0.11896 0.68135 0.3056 1.429 1.482 1.326 2.182 0.694 2.83l-1.019 1.027c-0.0784 0.07889-0.13114 0.17964-0.1513 0.28902-0.02017 0.10939-0.00682 0.22231 0.0383 0.32398 0.56475 1.1232 1.3153 2.143 2.22 3.016l0.073 0.073c0.87213 0.90289 1.8904 1.6521 3.012 2.216 0.10157 0.0452 0.21444 0.0588 0.32382 0.0388s0.21017-0.0726 0.28918-0.1508l1.031-1.023c0.648-0.632 1.347-0.73499 2.83 0.694 0.1866 0.1787 0.2962 0.4231 0.3056 0.6814 0.0093 0.2582-0.0824 0.5099-0.2556 0.7016-0.3301 0.3051-0.7173 0.5417-1.1394 0.6962s-0.8706 0.2238-1.3196 0.2038h-0.025c-0.9416-0.0336-1.8673-0.2528-2.724-0.645-0.13446-0.0586-0.2867-0.0614-0.42323-0.0078-0.13653 0.0537-0.24616 0.1593-0.30477 0.2938s-0.06141 0.2867-0.00777 0.4232c0.05363 0.1366 0.15931 0.2462 0.29377 0.3048 0.99215 0.4539 2.0654 0.7039 3.156 0.735h0.031c0.5963 0.0225 1.1911-0.0746 1.7493-0.2857s1.0685-0.5318 1.5007-0.9433l0.02-0.022 0.014-0.016c0.3644-0.4044 0.5568-0.935 0.536-1.479z" fill="#000"/></svg>
