<svg width="15" height="15" fill="none" version="1.1" viewBox="0 0 15 15" xmlns="http://www.w3.org/2000/svg"><path d="m14.532 12.545c-0.0298-0.1433-0.1154-0.2689-0.2379-0.3492-0.1224-0.0803-0.2718-0.1086-0.4151-0.0788-0.1434 0.0299-0.269 0.1154-0.3493 0.2379-0.0802 0.1224-0.1085 0.2718-0.0787 0.4151 0.0179 0.0843 0.0166 0.1715-0.0036 0.2553-0.0203 0.0838-0.059 0.1619-0.1134 0.2287-0.053 0.0661-0.1204 0.1194-0.1969 0.1558-0.0766 0.0363-0.1604 0.0549-0.2451 0.0542h-10.784c-0.08475 7e-4 -0.16855-0.0179-0.2451-0.0542-0.07656-0.0364-0.14387-0.0897-0.1969-0.1558-0.0544-0.0668-0.09315-0.1449-0.1134-0.2287-0.02024-0.0838-0.02147-0.171-0.0036-0.2553 0.28366-1.3405 1.0104-2.5466 2.0631-3.4237 1.0527-0.87712 2.3701-1.3743 3.7399-1.4113h0.293c0.97338 0.02428 1.9266 0.28224 2.7794 0.75214 0.8528 0.46991 1.5801 1.138 2.1206 1.9478 0.0815 0.1216 0.2081 0.2059 0.3517 0.2342 0.1437 0.0283 0.2927-0.0016 0.4143-0.0832 0.1216-0.0815 0.2058-0.208 0.2341-0.3517 0.0284-0.1437-0.0016-0.2927-0.0831-0.41427-0.8894-1.3296-2.1972-2.3242-3.716-2.826 0.63171-0.47188 1.0989-1.1307 1.3351-1.883 0.2362-0.75232 0.2295-1.5599-0.0191-2.3082s-0.7266-1.3993-1.366-1.8607c-0.63946-0.46138-1.408-0.70968-2.1965-0.70968s-1.557 0.2483-2.1965 0.70968c-0.63946 0.46137-1.1174 1.1124-1.366 1.8607s-0.25529 1.5559-0.01907 2.3082c0.23622 0.75231 0.70334 1.4111 1.3351 1.883-1.197 0.39362-2.2693 1.0953-3.1092 2.0346-0.83992 0.93928-1.4179 2.0831-1.6758 3.3164-0.051463 0.2441-0.047835 0.4966 0.010619 0.739 0.058454 0.2425 0.17026 0.4689 0.32728 0.6627s0.35529 0.3502 0.58037 0.4576c0.22508 0.1075 0.4713 0.1634 0.72073 0.1637h10.782c0.2498 3e-4 0.4964-0.0551 0.722-0.1624 0.2256-0.1072 0.4244-0.2635 0.5818-0.4573 0.1575-0.1939 0.2697-0.4205 0.3283-0.6633 0.0587-0.2428 0.0624-0.4956 0.0109-0.74zm-9.683-8.356c-1.3e-4 -0.51849 0.15184-1.0256 0.43709-1.4586 0.28525-0.43297 0.69124-0.77275 1.1677-0.97725s1.0024-0.26474 1.5128-0.17326 0.98265 0.33066 1.3584 0.68792c0.37575 0.35726 0.63845 0.8169 0.75554 1.322 0.1171 0.50509 0.0835 1.0334-0.09673 1.5196-0.18021 0.48616-0.49907 0.90877-0.9171 1.2155-0.41803 0.30672-0.91685 0.48408-1.4347 0.5101h-0.267c-0.6784-0.03508-1.3175-0.32905-1.7856-0.82133-0.4681-0.49228-0.72952-1.1454-0.73041-1.8247z" fill="#fff"/></svg>
